<svg width="120" height="120" viewBox="0 0 120 120" fill="none" xmlns="http://www.w3.org/2000/svg">
<path fill-rule="evenodd" clip-rule="evenodd" d="M63.0761 30.3896H62.9403H58.2558C51.9401 30.3896 46.8198 35.5087 46.8198 41.8239V76.5354H63.1537C72.2746 76.5354 79.8346 69.2409 79.9022 60.1216C79.9704 50.93 72.5386 43.4574 63.3612 43.4574H61.199C60.6631 43.4574 60.1891 43.8056 60.0294 44.317L58.2558 49.9913H63.1966C68.6839 49.9913 73.2746 54.3395 73.3665 59.8253C73.4601 65.4292 68.9447 70.0015 63.3612 70.0015H53.3547V41.8239C53.3547 39.1175 55.5492 36.9235 58.2558 36.9235H62.9403H63.1127C75.8665 36.9235 86.395 47.1628 86.4394 59.9147C86.4835 72.6949 76.1349 83.0693 63.363 83.0693L40.2922 83.0764V41.7825H40.2859C40.2955 37.455 41.8347 33.4863 44.3929 30.3896H36.5786C34.7737 33.8034 33.75 37.6937 33.75 41.8239H33.7574V89.6104L63.3596 89.6032C79.7182 89.6032 92.9792 76.3396 92.9708 59.9813C92.9624 43.5893 79.4701 30.3896 63.0761 30.3896" fill="#64ffda"/>
</svg>
